PathFileType  4	(X/Y/Z) C:\Users\antoi\Documents\MyRepositories\mobilecap\ResultsAnalysis
DataRate	CameraRate	NumFrames	NumMarkers	Units	OrigDataRate	OrigDataStartFrame	OrigNumFrames
100.0	100.0	4	51	mm	100.0	1145	1831
Frame#	Time	r_knee			r_shank_antsup			r_ankle			r_calc			r_5meta			r_toe			L_knee			L_shank_antsup			L_ankle			L_calc			L_5meta			L_toe			r_sh2			r_sh3			r_sh4			L_sh2			L_sh3			r_thigh1			r_thigh2			r_thigh3			r_thigh4			r_thigh5			L_thigh1			L_thigh2			L_thigh3			L_thigh4			r.ASIS			r.PSIS			L.ASIS			L.PSIS			C7			R_Shoulder			L_Shoulder			R_Sternum			L_Sternum			R_humerus			R_elbow_med			R_elbow_lat			R_forearm			R_wrist_radius			R_wrist_ulna			L_humerus			L_elbow_med			L_elbow_lat			L_forearm			L_wrist_radius			L_wrist_ulna			R_HJC			L_HJC			R_HJC_reg			L_HJC_reg			
		X1	Y1	Z1	X2	Y2	Z2	X3	Y3	Z3	X4	Y4	Z4	X5	Y5	Z5	X6	Y6	Z6	X7	Y7	Z7	X8	Y8	Z8	X9	Y9	Z9	X10	Y10	Z10	X11	Y11	Z11	X12	Y12	Z12	X13	Y13	Z13	X14	Y14	Z14	X15	Y15	Z15	X16	Y16	Z16	X17	Y17	Z17	X18	Y18	Z18	X19	Y19	Z19	X20	Y20	Z20	X21	Y21	Z21	X22	Y22	Z22	X23	Y23	Z23	X24	Y24	Z24	X25	Y25	Z25	X26	Y26	Z26	X27	Y27	Z27	X28	Y28	Z28	X29	Y29	Z29	X30	Y30	Z30	X31	Y31	Z31	X32	Y32	Z32	X33	Y33	Z33	X34	Y34	Z34	X35	Y35	Z35	X36	Y36	Z36	X37	Y37	Z37	X38	Y38	Z38	X39	Y39	Z39	X40	Y40	Z40	X41	Y41	Z41	X42	Y42	Z42	X43	Y43	Z43	X44	Y44	Z44	X45	Y45	Z45	X46	Y46	Z46	X47	Y47	Z47	X48	Y48	Z48	X49	Y49	Z49	X50	Y50	Z50	X51	Y51	Z51	

1145	11.44000000	-187.00886	542.10639	-424.89350	-146.97914	440.77980	-427.12458	-279.33655	124.77779	-432.87815	-363.24770	74.47047	-479.22595	-174.60653	48.53835	-376.72437	-111.56201	75.02841	-436.15830	-204.73505	542.32066	-832.70950	-205.05780	453.78728	-860.13167	-285.18851	124.67725	-822.16510	-365.77008	73.28049	-765.31756	-179.70912	50.77680	-865.03173	-115.71919	77.69477	-805.98045	-184.21132	336.92031	-398.79952	-206.22973	470.10558	-391.80191	-259.12693	369.20255	-380.65673	-293.37612	469.98833	-846.65040	-302.46818	348.08648	-848.58350	-186.89451	869.72720	-432.70458	-157.99684	764.70371	-428.65275	-203.23003	726.41854	-399.94853	-293.74545	834.46777	-432.96670	-254.75541	726.46749	-422.36234	-175.24210	839.57133	-821.36858	-143.41754	702.79701	-822.60711	-280.27868	815.56434	-844.60667	-254.19363	680.73603	-845.50890	-209.58266	1071.88237	-498.87781	-390.25320	1072.78017	-566.23464	-205.79218	1070.43449	-747.45114	-393.68441	1076.58301	-677.72096	-221.03350	1612.87026	-632.07491	-157.15528	1545.76723	-465.78217	-178.72359	1549.24946	-803.81369	-107.72377	1511.60627	-605.51453	-111.15403	1508.44158	-662.74843	-184.00319	1398.21061	-383.68762	-303.56680	1214.05380	-389.02717	-284.06214	1248.82714	-307.99940	-137.97430	1154.97888	-308.32212	-50.74953	1129.53672	-331.22210	-76.52968	1097.90301	-308.82706	-218.41781	1429.90701	-880.56556	-290.90224	1195.58470	-830.28733	-274.26004	1215.17920	-913.57027	-202.81055	1180.46894	-922.14837	-55.32729	1087.95801	-898.04593	-77.19831	1057.57765	-916.61112	-281.26949	950.51673	-518.40344	-285.61432	956.76229	-725.22441	-258.37790	982.20438	-535.20553	-263.42295	987.79533	-699.11274	
1146	11.45000000	-185.15356	541.34917	-424.32252	-145.10891	439.85104	-426.64319	-279.30476	124.77541	-432.72284	-363.22729	74.48555	-479.24352	-174.62331	48.53992	-376.72815	-111.58626	75.07816	-436.20629	-202.35692	541.39225	-833.34633	-202.92510	453.11132	-860.92149	-285.05771	124.62922	-822.34352	-365.79213	73.20877	-765.27050	-179.71088	50.77349	-865.03196	-115.75651	77.74622	-805.99147	-183.00004	336.15970	-398.43979	-204.38440	469.66042	-391.27603	-257.63936	368.27951	-380.65231	-291.07003	469.82310	-847.27061	-301.01272	347.98590	-848.95325	-190.16089	868.49424	-432.81215	-159.77445	764.16945	-428.40370	-204.19859	725.10234	-399.55255	-296.32698	831.67753	-432.60934	-255.64685	724.35378	-421.97632	-177.26795	838.95114	-821.10021	-143.32357	702.67381	-822.65415	-281.58683	813.48311	-845.68631	-253.48077	679.05402	-847.02575	-214.11157	1069.07634	-499.22679	-394.89100	1071.53852	-566.13386	-210.77805	1067.61148	-747.37304	-398.17006	1075.31236	-677.81647	-216.55044	1609.23177	-632.46740	-153.71904	1541.62302	-466.14018	-175.48102	1545.08657	-803.96342	-104.94278	1506.33972	-605.74330	-108.43843	1503.24532	-663.20204	-182.93511	1394.70125	-383.82466	-304.66478	1212.03462	-389.10008	-285.23014	1246.85767	-308.14858	-140.67838	1150.54012	-307.56849	-53.76636	1123.56095	-329.88423	-80.15156	1092.48660	-307.58144	-218.00232	1426.66138	-880.70260	-296.43792	1194.49676	-829.78514	-278.83312	1213.32245	-913.86916	-208.89379	1175.84019	-923.08628	-65.09275	1076.98264	-900.84085	-88.37085	1047.63564	-919.22877	-286.85773	948.33248	-518.48421	-291.36697	954.60844	-725.30068	-263.99833	980.03661	-535.48527	-268.80307	985.56647	-699.11574	
1147	11.46000000	-183.26771	540.52050	-423.70237	-143.20005	438.84806	-426.15764	-279.22408	124.72017	-432.74958	-363.23360	74.53338	-479.29769	-174.61727	48.53070	-376.72073	-111.59273	75.05073	-436.16239	-199.71581	540.43018	-833.87730	-200.64575	452.33171	-861.57474	-284.91838	124.56316	-822.47562	-365.77483	73.24283	-765.28527	-179.69957	50.77737	-865.02351	-115.74809	77.77903	-805.97603	-181.79141	335.49709	-398.02317	-202.44733	469.31372	-390.62394	-256.64008	367.77465	-380.01799	-288.65906	469.64656	-847.81845	-299.45607	347.84504	-849.17458	-193.72689	867.11785	-432.82520	-161.67020	763.60461	-428.12645	-205.25224	723.69935	-399.04326	-299.27940	828.52923	-432.38049	-256.59734	722.21087	-421.48126	-179.48240	838.24424	-821.04190	-143.16407	702.62923	-822.77217	-282.96912	811.25859	-847.03231	-252.64256	677.16842	-848.12366	-218.93772	1065.96822	-499.24625	-399.59506	1070.16387	-566.03459	-215.67802	1064.72177	-747.33665	-402.83369	1073.96909	-677.88733	-211.91923	1605.16366	-632.64977	-150.11864	1537.03773	-466.52778	-172.10698	1540.48314	-804.14858	-102.07074	1500.64898	-606.09597	-105.59046	1497.39317	-663.36046	-181.65550	1391.04577	-383.66094	-305.31802	1209.49570	-389.35845	-286.25712	1244.60999	-308.27565	-143.31140	1145.78303	-306.83307	-56.80314	1117.30211	-328.60869	-83.75791	1087.03090	-306.32018	-217.51258	1423.12735	-880.89184	-301.43744	1192.68834	-829.70893	-283.26366	1211.22151	-914.17320	-214.91978	1171.07884	-924.33463	-75.14137	1065.73571	-903.58048	-99.86886	1037.72990	-922.16250	-292.71653	945.91156	-518.58058	-297.18977	952.40272	-725.39051	-269.69048	977.56092	-535.49315	-274.42707	983.12646	-699.08678	
1148	11.47000000	-181.32179	539.63521	-422.99789	-141.27946	437.92352	-425.66063	-279.07814	124.65716	-432.97278	-363.23812	74.63897	-479.40699	-174.57100	48.54394	-376.75106	-111.55669	74.99001	-436.07951	-196.97906	539.56890	-834.50188	-198.24883	451.54047	-862.15356	-284.77446	124.50784	-822.56782	-365.75852	73.29950	-765.31751	-179.68688	50.78827	-865.01001	-115.69864	77.80484	-805.96845	-180.34989	334.78157	-397.66500	-200.41632	468.66943	-390.13919	-256.04788	367.55560	-378.87682	-286.17518	469.45551	-848.36412	-297.72137	347.65251	-849.46310	-197.59099	865.66845	-432.75490	-163.63585	762.80058	-427.89431	-206.50079	722.05969	-398.72674	-302.46804	825.13190	-432.27473	-257.77081	719.77062	-421.08347	-181.92518	837.51061	-821.32434	-143.01035	702.65045	-822.94944	-284.55034	808.75777	-848.36179	-251.79364	675.20760	-849.05959	-223.90818	1062.60568	-499.22651	-404.32043	1068.47377	-566.11235	-220.19567	1061.79494	-747.18418	-407.66932	1072.50999	-678.01805	-207.16726	1600.63077	-632.76965	-146.26742	1531.96732	-466.91146	-168.58191	1535.46060	-804.53016	-99.07117	1494.41168	-606.39974	-102.68708	1490.91848	-663.51161	-180.20737	1386.91752	-383.50236	-306.57128	1206.83520	-389.84576	-287.20457	1241.97093	-308.28744	-145.93038	1140.71006	-305.92533	-59.85004	1110.77946	-327.31887	-87.36962	1081.19213	-304.97952	-216.86607	1419.20605	-881.02535	-305.56545	1190.28562	-830.75372	-287.54945	1208.88170	-914.75834	-220.83971	1166.20869	-925.78874	-85.50200	1054.33097	-906.33956	-111.58587	1027.61006	-925.09498	-298.65652	943.22022	-518.80041	-302.81605	950.13668	-725.60312	-275.09592	974.75021	-535.53742	-279.98846	980.64676	-699.03023	
